# xmcd
#
# Track frame offsets:
#	150
#	20583
#	35009
#	48538
#	65744
#	82548
#	98608
#	113289
#	132104
#	149255
#	166968
#	186437
#	198925
#	216413
#	232479
#	249323
#	265835
#	285564
#
# Disc length: 4025 seconds
#
# Revision: 1
# Processed by: cddbd v1.5.1PL2 Copyright (c) Steve Scherf et al.
# Submitted via: audiograbber 1.83.01
#
DISCID=020fb712
DTITLE=Kenny Rogers - Greatest Hits
DYEAR=1900
DGENRE=
TTITLE0=Coward of the county
TTITLE1=Daytime friends
TTITLE2=Ruby dont take your love to down
TTITLE3=We've got tonight
TTITLE4=Eyes that see in the dark
TTITLE5=Green green grass of home
TTITLE6=The greatest
TTITLE7=Island in the stream
TTITLE8=Buy me a rose
TTITLE9=Scarlet fever
TTITLE10=Something's burning
TTITLE11=Goodbye marie
TTITLE12=Lady
TTITLE13=Lucille
TTITLE14=Love lifted me
TTITLE15=Your decorated my life
TTITLE16=Throught the years
TTITLE17=Love will turn you around
EXTD=
EXTT0=
EXTT1=
EXTT2=
EXTT3=
EXTT4=
EXTT5=
EXTT6=
EXTT7=
EXTT8=
EXTT9=
EXTT10=
EXTT11=
EXTT12=
EXTT13=
EXTT14=
EXTT15=
EXTT16=
EXTT17=
PLAYORDER=
